<svg xmlns="http://www.w3.org/2000/svg" fill="none" viewBox="0 0 578 578"><path fill="#6B6B6B" d="M65.35.34C24.02.34.78 21.7.78 65.37V515.5c0 40.84 20.89 62.23 62.2 62.23H515c41.3 0 62.22-20.33 62.22-62.24V65.38c0-42.6-20.92-65.03-63.52-65.03 0 0-448.49-.14-448.35 0Z"/><path fill="#fff" d="M159.5 89.16h166.59c72.85 0 126.52 65.19 126.52 132.27 0 75.44-63.86 131.78-130 131.78h-87.4v128.94H159.5V89.16Z"/><path fill="gray" d="M236.18 162.01h86.08c27.79 0 55.85 25.84 55.85 60.36 0 34.5-26.14 58.45-56.81 58.45h-85.12v-118.8Z"/></svg>