<svg xmlns="http://www.w3.org/2000/svg" fill="none" viewBox="0 0 600 689"><path fill="#CCE027" d="M300.13 688.75 246 595h108.25l-54.12 93.75Z"/><path fill="#CCE027" d="M600 300.5C600 466.46 465.69 601 300 601S0 466.46 0 300.5 134.31 0 300 0s300 134.54 300 300.5Z"/><path fill="#fff" fill-rule="evenodd" d="M397.08 140h32.42c8.98 0 16.25 7.29 16.25 16.28 0 8.99-7.27 16.28-16.25 16.28h-32.68l17.44 112.19a17.25 17.25 0 0 1 .17 1.1l7.83 50.31a48.83 48.83 0 0 1 39.74 48A48.8 48.8 0 0 1 413.25 433a48.8 48.8 0 0 1-48.75-48.83 48.83 48.83 0 0 1 25.64-43.01L385 308.07a81.44 81.44 0 0 0-51.88 64.7 32.56 32.56 0 0 1-32.4 27.68h-69A48.78 48.78 0 0 1 185.76 433 48.8 48.8 0 0 1 137 384.17a48.8 48.8 0 0 1 48.75-48.84 48.77 48.77 0 0 1 45.98 32.56h69.25a114.02 114.02 0 0 1 31.58-63.63 113.72 113.72 0 0 1 47.36-28.84l-15.23-97.92v-.06a32.6 32.6 0 0 1 18.82-34.59 32.47 32.47 0 0 1 13.57-2.85ZM185.75 367.9a16.26 16.26 0 0 0-16.25 16.28c0 8.99 7.28 16.27 16.25 16.27 8.97 0 16.25-7.28 16.25-16.27 0-9-7.28-16.28-16.25-16.28Zm227.5 0A16.26 16.26 0 0 0 397 384.17c0 8.99 7.27 16.27 16.25 16.27s16.25-7.28 16.25-16.27c0-9-7.27-16.28-16.25-16.28Z" clip-rule="evenodd"/></svg>